<?xml version="1.0" encoding="UTF-8"?>
<svg width="300" height="300" viewBox="0 0 300 300" fill="none" xmlns="http://www.w3.org/2000/svg">
  <!-- Car body with bubbles -->
  <path d="M150 240C150 240 200 220 250 220H280C290 220 295 225 295 235V260C295 270 290 275 280 275H30C20 275 15 270 15 260V235C15 225 20 220 30 220H60C110 220 150 240 150 240Z" stroke="black" stroke-width="8" fill="white"/>
  
  <!-- Windshield angle -->
  <path d="M120 220V180H190V220" stroke="black" stroke-width="8" fill="white"/>
  
  <!-- Wheels -->
  <circle cx="90" cy="245" r="15" stroke="black" stroke-width="6" fill="white"/>
  <circle cx="220" cy="245" r="15" stroke="black" stroke-width="6" fill="white"/>
  
  <!-- Bubbles -->
  <circle cx="150" cy="50" r="20" stroke="black" stroke-width="6" fill="white"/>
  <circle cx="120" cy="80" r="25" stroke="black" stroke-width="6" fill="white"/>
  <circle cx="180" cy="80" r="25" stroke="black" stroke-width="6" fill="white"/>
  <circle cx="90" cy="110" r="20" stroke="black" stroke-width="6" fill="white"/>
  <circle cx="150" cy="100" r="30" stroke="black" stroke-width="6" fill="white"/>
  <circle cx="210" cy="110" r="20" stroke="black" stroke-width="6" fill="white"/>
  <circle cx="60" cy="130" r="15" stroke="black" stroke-width="6" fill="white"/>
  <circle cx="240" cy="130" r="15" stroke="black" stroke-width="6" fill="white"/>
</svg>