<?xml version="1.0" encoding="UTF-8" standalone="no"?>
<svg xmlns="http://www.w3.org/2000/svg" width="500" height="400" viewBox="0 0 500 400" fill="none">
  <path fill="#FFFFFF" d="M445 140C445 151.046 436.046 160 425 160C413.954 160 405 151.046 405 140C405 128.954 413.954 120 425 120C436.046 120 445 128.954 445 140Z"/>
  <path fill="#FFFFFF" d="M95 140C95 151.046 86.0457 160 75 160C63.9543 160 55 151.046 55 140C55 128.954 63.9543 120 75 120C86.0457 120 95 128.954 95 140Z"/>
  <path fill="#FFFFFF" d="M305 90C305 101.046 296.046 110 285 110C273.954 110 265 101.046 265 90C265 78.9543 273.954 70 285 70C296.046 70 305 78.9543 305 90Z"/>
  <path fill="#FFFFFF" d="M375 90C375 101.046 366.046 110 355 110C343.954 110 335 101.046 335 90C335 78.9543 343.954 70 355 70C366.046 70 375 78.9543 375 90Z"/>
  <path fill="#FFFFFF" d="M165 90C165 101.046 156.046 110 145 110C133.954 110 125 101.046 125 90C125 78.9543 133.954 70 145 70C156.046 70 165 78.9543 165 90Z"/>
  <path fill="#FFFFFF" d="M235 60C235 71.0457 226.046 80 215 80C203.954 80 195 71.0457 195 60C195 48.9543 203.954 40 215 40C226.046 40 235 48.9543 235 60Z"/>
  <path fill="#FFFFFF" d="M230 140C230 162.091 212.091 180 190 180C167.909 180 150 162.091 150 140C150 117.909 167.909 100 190 100C212.091 100 230 117.909 230 140Z"/>
  <path fill="#FFFFFF" d="M300 140C300 162.091 282.091 180 260 180C237.909 180 220 162.091 220 140C220 117.909 237.909 100 260 100C282.091 100 300 117.909 300 140Z"/>
  <path fill="#FFFFFF" d="M370 140C370 162.091 352.091 180 330 180C307.909 180 290 162.091 290 140C290 117.909 307.909 100 330 100C352.091 100 370 117.909 370 140Z"/>
  <path fill="#FFFFFF" d="M160 140C160 162.091 142.091 180 120 180C97.9086 180 80 162.091 80 140C80 117.909 97.9086 100 120 100C142.091 100 160 117.909 160 140Z"/>
  <path fill="#FFFFFF" d="M85 200H165L150 250H70L85 200Z"/>
  <path fill="#FFFFFF" d="M165 200H415L415 235C415 243.284 408.284 250 400 250H150L165 200Z"/>
  <path fill="#FFFFFF" d="M185 280C185 291.046 176.046 300 165 300C153.954 300 145 291.046 145 280C145 268.954 153.954 260 165 260C176.046 260 185 268.954 185 280Z"/>
  <path fill="#FFFFFF" d="M375 280C375 291.046 366.046 300 355 300C343.954 300 335 291.046 335 280C335 268.954 343.954 260 355 260C366.046 260 375 268.954 375 280Z"/>
  <path fill="#FFFFFF" d="M325.336 250.064H335.456V348.064H325.336V250.064Z"/>
  <path fill="#FFFFFF" d="M302.243 348.064V250.064H316.403L316.483 348.064H302.243Z"/>
  <path fill="#FFFFFF" d="M271.883 250.064H282.003V348.064H271.883V250.064Z"/>
  <path fill="#FFFFFF" d="M249.232 348.064V250.064H263.392L263.472 348.064H249.232Z"/>
  <path fill="#FFFFFF" d="M224.76 250.064H230V348.064H224.76V250.064Z"/>
  <path fill="#FFFFFF" d="M193.032 348.064V250.064H216.16L216.24 348.064H193.032Z"/>
  <path fill="#FFFFFF" d="M166.536 250.064H176.656V348.064H166.536V250.064Z"/>
  <path fill="#FFFFFF" d="M130.672 348.064V250.064H157.968L158.048 348.064H130.672Z"/>
  <path fill="#FFFFFF" d="M349.616 250.064H364.128V348.064H349.616V250.064Z"/>
  <path fill="#FFFFFF" d="M334.064 339.936H358.616V348.064H334.064V339.936Z"/>
  <path fill="#FFFFFF" d="M334.064 298.496H358.616V306.624H334.064V298.496Z"/>
  <path fill="#FFFFFF" d="M334.064 258.192H358.616V266.32H334.064V258.192Z"/>
  <path fill="#FFFFFF" d="M364.128 250.064H374.248V348.064H364.128V250.064Z"/>
  <path fill="#FFFFFF" d="M72 350H358V380H72V350Z"/>
  <path fill="#FFFFFF" d="M72 380H92V400H72V380Z"/>
  <path fill="#FFFFFF" d="M358 380H338V400H358V380Z"/>
  <path fill="#FFFFFF" d="M92 380H112V400H92V380Z"/>
  <path fill="#FFFFFF" d="M112 380H132V400H112V380Z"/>
  <path fill="#FFFFFF" d="M132 380H152V400H132V380Z"/>
  <path fill="#FFFFFF" d="M152 380H172V400H152V380Z"/>
  <path fill="#FFFFFF" d="M172 380H192V400H172V380Z"/>
  <path fill="#FFFFFF" d="M192 380H212V400H192V380Z"/>
  <path fill="#FFFFFF" d="M212 380H232V400H212V380Z"/>
  <path fill="#FFFFFF" d="M232 380H252V400H232V380Z"/>
  <path fill="#FFFFFF" d="M252 380H272V400H252V380Z"/>
  <path fill="#FFFFFF" d="M272 380H292V400H272V380Z"/>
  <path fill="#FFFFFF" d="M292 380H312V400H292V380Z"/>
  <path fill="#FFFFFF" d="M312 380H332V400H312V380Z"/>
  <path fill="#FFFFFF" d="M332 380H352V400H332V380Z"/>
</svg>